<svg width="1024" height="1024" viewBox="0 0 1024 1024" fill="none" xmlns="http://www.w3.org/2000/svg">
<g filter="url(#filter0_d_306_284)">
<rect x="271.626" y="904.855" width="765.525" height="569.798" rx="74.1166" transform="rotate(-90 271.626 904.855)" stroke="#F6F5F1" stroke-width="44"/>
<mask id="mask0_306_284" style="mask-type:alpha" maskUnits="userSpaceOnUse" x="293" y="161" width="527" height="722">
<rect x="293.626" y="882.855" width="721.525" height="525.798" rx="52.1166" transform="rotate(-90 293.626 882.855)" fill="black"/>
</mask>
<g mask="url(#mask0_306_284)">
<rect x="180.128" y="-1.96777" width="815.335" height="1027.28" fill="#011117"/>
<rect x="634" y="161.231" width="54" height="722" fill="#F6F5F1"/>
<rect x="653.81" y="882.891" width="103.075" height="165.615" transform="rotate(-90 653.81 882.891)" fill="#FF3377"/>
<rect x="653.81" y="779.815" width="101.917" height="165.615" transform="rotate(-90 653.81 779.815)" fill="#B0623B"/>
<rect x="653.81" y="677.898" width="104.233" height="165.615" transform="rotate(-90 653.81 677.898)" fill="#F9CE00"/>
<rect x="653.81" y="573.666" width="103.075" height="165.615" transform="rotate(-90 653.81 573.666)" fill="#0CAD8E"/>
<rect x="653.81" y="470.591" width="103.075" height="165.615" transform="rotate(-90 653.81 470.591)" fill="#1A3AC3"/>
<rect x="653.81" y="367.516" width="103.075" height="165.615" transform="rotate(-90 653.81 367.516)" fill="#8222D7"/>
<rect x="653.81" y="264.441" width="103.075" height="165.615" transform="rotate(-90 653.81 264.441)" fill="#4C4C4C"/>
<rect x="605.496" y="812.295" width="64.9584" height="161.085" transform="rotate(-90 605.496 812.295)" fill="#011117" stroke="#F6F5F1" stroke-width="14"/>
<rect x="605.496" y="709.22" width="64.9584" height="161.085" transform="rotate(-90 605.496 709.22)" fill="#011117" stroke="#F6F5F1" stroke-width="14"/>
<rect x="605.496" y="501.912" width="63.8003" height="161.085" transform="rotate(-90 605.496 501.912)" fill="#011117" stroke="#F6F5F1" stroke-width="14"/>
<rect x="605.496" y="399.996" width="63.8003" height="161.085" transform="rotate(-90 605.496 399.996)" fill="#011117" stroke="#F6F5F1" stroke-width="14"/>
<rect x="605.496" y="296.92" width="64.9584" height="161.085" transform="rotate(-90 605.496 296.92)" fill="#011117" stroke="#F6F5F1" stroke-width="14"/>
</g>
<path d="M353.223 63.3643C381.515 61.7477 405.127 79.1353 421.13 101.614C437.397 124.464 448.31 155.562 451.536 189.773C457.866 256.909 424.432 350.927 357.788 426.336C361.593 441.231 365.581 456.042 369.601 471.052C379.135 470.481 388.669 470.907 397.717 472.626C429.801 478.722 486.633 505.27 508.889 569.034C534.233 641.643 495.328 708.208 442.83 747.989L459.843 812.365L460.339 814.263C470.479 854.003 463.121 888.015 443.811 913.438C424.652 938.661 395.367 953.302 365.613 957.985C335.874 962.666 303.63 957.741 277.553 941.246C250.841 924.349 231.826 895.996 228.955 857.271L228.898 856.515V855.756C228.898 823.094 251.034 796.348 276.815 784.396C303.561 771.998 338.735 773.71 362.222 803.847C376.383 822.016 381.48 842.274 379.665 860.563C384.115 852.653 386.65 842.284 385.731 829.891C385.759 830.268 385.603 828.965 384.67 824.557C383.861 820.734 382.689 815.562 381.179 809.153C379.156 800.563 376.567 789.927 373.527 777.649C339.636 782.505 303.431 776.531 270.294 762.938C230.139 746.467 192.78 718.142 167.603 681.153C123.059 615.709 132.329 550.009 160.61 492.62C186.427 440.232 229.23 392.247 263.7 353.792C252.903 312.203 242.402 268.031 242.402 222.046C242.402 174.968 257.483 136.525 278.535 109.25C299.026 82.7024 326.838 64.872 353.223 63.3643ZM353.622 698.903C347.492 706.179 339.267 708.219 331.888 708.196C341.763 709.508 350.241 709.231 355.94 707.96C355.176 704.971 354.402 701.952 353.622 698.903ZM247.162 644.622C251.87 657.165 258.648 667.499 266.659 675.955C258.123 666.67 251.658 656.02 247.162 644.622ZM421.349 666.713C422.397 664.896 423.319 663.038 424.103 661.136C428.317 650.903 429.513 637.262 422.042 618.464C415.615 602.295 407.764 592.813 400.344 587.235L421.349 666.713ZM329.834 606.72C328.739 609.298 327.865 611.981 327.249 614.722C324.395 627.411 327.61 637.753 335.613 644.028C337.053 645.158 338.737 646.478 340.5 647.897C337.006 634.373 333.434 620.588 329.834 606.72ZM298.709 487.377C293.069 493.314 287.699 499.178 282.661 505.033C287.971 500.323 293.748 496.029 299.983 492.244C299.557 490.615 299.132 488.993 298.709 487.377ZM350.735 181.373C348.029 183.202 344.285 186.406 340.308 191.936C332.782 202.399 325.217 220.471 325.117 249.273C325.091 256.562 325.774 265.723 327.039 276.302C331.796 269.217 336.325 261.868 340.333 254.402C352.523 231.699 357.929 211.545 354.651 195.902L354.65 195.9L354.568 195.507L354.567 195.503C353.633 191.04 352.463 185.747 350.735 181.373Z" fill="#011117" stroke="#F6F5F1" stroke-width="41"/>
</g>
<defs>
<filter id="filter0_d_306_284" x="-4" y="0" width="1032" height="1032" filterUnits="userSpaceOnUse" color-interpolation-filters="sRGB">
<feFlood flood-opacity="0" result="BackgroundImageFix"/>
<feColorMatrix in="SourceAlpha" type="matrix" values="0 0 0 0 0 0 0 0 0 0 0 0 0 0 0 0 0 0 127 0" result="hardAlpha"/>
<feOffset dy="4"/>
<feGaussianBlur stdDeviation="2"/>
<feComposite in2="hardAlpha" operator="out"/>
<feColorMatrix type="matrix" values="0 0 0 0 0 0 0 0 0 0 0 0 0 0 0 0 0 0 0.25 0"/>
<feBlend mode="normal" in2="BackgroundImageFix" result="effect1_dropShadow_306_284"/>
<feBlend mode="normal" in="SourceGraphic" in2="effect1_dropShadow_306_284" result="shape"/>
</filter>
</defs>
</svg>
