<svg width="1024" height="1024" viewBox="0 0 1024 1024" fill="none" xmlns="http://www.w3.org/2000/svg">
<path fill-rule="evenodd" clip-rule="evenodd" d="M385.947 108.296C417.127 106.514 445.888 141.958 455.663 191.584C455.696 191.749 455.728 191.914 455.76 192.079C455.836 192.468 455.91 192.859 455.983 193.25C456.009 193.389 456.035 193.527 456.06 193.665C456.142 194.108 456.223 194.551 456.302 194.996C456.346 195.245 456.388 195.495 456.432 195.744C456.497 196.121 456.561 196.497 456.624 196.875C456.655 197.058 456.684 197.241 456.714 197.425C456.773 197.783 456.83 198.141 456.887 198.5C456.919 198.709 456.952 198.918 456.984 199.127C457.061 199.628 457.137 200.13 457.21 200.633C457.238 200.822 457.264 201.012 457.291 201.202C457.337 201.528 457.384 201.855 457.428 202.182C457.462 202.426 457.494 202.67 457.527 202.915C457.572 203.253 457.616 203.592 457.659 203.931C457.696 204.225 457.733 204.519 457.769 204.814C457.824 205.261 457.877 205.709 457.929 206.158C457.944 206.293 457.959 206.428 457.975 206.563C458.012 206.897 458.049 207.232 458.085 207.567C458.115 207.846 458.145 208.125 458.174 208.404C458.202 208.676 458.229 208.949 458.256 209.222C458.283 209.501 458.312 209.78 458.339 210.06C463.884 268.869 432.774 356.627 367.863 426.092C370.561 436.971 373.398 447.812 376.278 458.641C377.258 462.33 378.245 466.016 379.232 469.703C381.478 478.089 383.729 486.475 385.948 494.871C396.074 492.941 406.231 492.24 415.573 493.048C415.946 493.081 416.319 493.115 416.689 493.152C417.431 493.227 418.168 493.311 418.899 493.405C419.264 493.452 419.628 493.502 419.99 493.554C421.078 493.71 422.151 493.887 423.21 494.088C423.615 494.165 424.025 494.247 424.439 494.333L425.699 494.601C426.548 494.788 427.415 494.993 428.299 495.214C428.74 495.325 429.187 495.439 429.636 495.559C430.537 495.798 431.454 496.055 432.386 496.329C433.317 496.603 434.262 496.895 435.221 497.205C437.14 497.826 439.112 498.52 441.124 499.29C444.142 500.445 447.253 501.772 450.415 503.28C450.943 503.532 451.471 503.788 452.001 504.05C455.18 505.619 458.404 507.372 461.634 509.32C462.71 509.969 463.787 510.641 464.863 511.333C466.209 512.199 467.552 513.1 468.892 514.035C469.428 514.41 469.963 514.79 470.497 515.175C481.223 522.915 491.596 532.941 500.114 545.65C500.367 546.028 500.618 546.409 500.868 546.792C501.214 547.321 501.559 547.853 501.898 548.392C502.103 548.718 502.307 549.045 502.51 549.375C504.946 553.327 507.202 557.523 509.24 561.972C509.41 562.342 509.578 562.715 509.745 563.089C511.08 566.083 512.315 569.191 513.441 572.414C516.985 582.568 518.964 592.642 519.57 602.537C519.599 603.008 519.625 603.479 519.647 603.95C519.715 605.361 519.755 606.769 519.768 608.173C519.802 611.845 519.647 615.489 519.318 619.101C519.151 620.919 518.94 622.728 518.685 624.529C518.351 626.898 517.943 629.252 517.46 631.589C517.275 632.488 517.078 633.385 516.871 634.279C516.384 636.387 515.835 638.48 515.232 640.558C514.94 641.565 514.637 642.568 514.319 643.566C513.064 647.502 511.608 651.38 509.965 655.19C509.6 656.037 509.226 656.88 508.843 657.72C507.921 659.741 506.946 661.742 505.922 663.722C505.455 664.624 504.979 665.522 504.492 666.415C491.373 690.474 470.875 711.342 447.25 726.828L466.749 800.608C466.873 801.07 466.992 801.53 467.11 801.989C467.146 802.128 467.181 802.266 467.216 802.405C467.312 802.782 467.406 803.158 467.497 803.533C467.515 803.607 467.534 803.681 467.552 803.755C467.781 804.704 467.998 805.647 468.203 806.585C468.226 806.69 468.248 806.795 468.271 806.9C468.353 807.277 468.432 807.654 468.51 808.029C468.53 808.126 468.55 808.222 468.57 808.318C468.66 808.759 468.747 809.199 468.831 809.638C468.856 809.765 468.879 809.892 468.903 810.019C468.958 810.311 469.012 810.602 469.065 810.893C469.095 811.054 469.124 811.215 469.153 811.376C469.219 811.747 469.282 812.118 469.344 812.487C469.358 812.573 469.374 812.657 469.388 812.742C469.456 813.156 469.521 813.569 469.585 813.981C469.612 814.155 469.638 814.33 469.664 814.504C469.703 814.767 469.742 815.029 469.779 815.291C469.803 815.454 469.826 815.617 469.848 815.779C469.905 816.186 469.959 816.592 470.011 816.996C470.026 817.119 470.041 817.241 470.056 817.364C470.095 817.682 470.133 817.999 470.169 818.315C470.189 818.485 470.207 818.655 470.226 818.824C470.258 819.11 470.287 819.395 470.316 819.68C470.327 819.782 470.339 819.883 470.349 819.985C470.392 820.417 470.432 820.849 470.469 821.278C470.478 821.373 470.484 821.467 470.492 821.561C470.52 821.884 470.546 822.206 470.57 822.527C470.582 822.692 470.595 822.858 470.607 823.023C470.625 823.289 470.642 823.555 470.658 823.819C470.667 823.954 470.676 824.089 470.684 824.224C470.707 824.615 470.727 825.004 470.745 825.393C470.752 825.554 470.759 825.716 470.766 825.877C470.778 826.151 470.788 826.426 470.797 826.699C470.802 826.843 470.808 826.987 470.812 827.131C470.822 827.458 470.831 827.783 470.837 828.108C470.84 828.253 470.842 828.399 470.844 828.544C470.849 828.858 470.853 829.172 470.854 829.485C470.855 829.636 470.855 829.787 470.855 829.938C470.856 830.23 470.854 830.522 470.852 830.813C470.851 830.913 470.851 831.013 470.85 831.113C470.846 831.452 470.841 831.79 470.833 832.128C470.829 832.341 470.822 832.554 470.816 832.766C470.809 832.988 470.802 833.209 470.795 833.429C470.789 833.594 470.783 833.759 470.776 833.924C470.768 834.117 470.759 834.309 470.75 834.501C470.736 834.799 470.72 835.096 470.703 835.393C470.689 835.645 470.674 835.896 470.657 836.147C470.644 836.343 470.631 836.538 470.617 836.733C470.606 836.884 470.594 837.036 470.583 837.186C470.525 837.938 470.458 838.684 470.382 839.425C470.365 839.588 470.348 839.751 470.33 839.914C470.308 840.117 470.285 840.32 470.262 840.522C470.243 840.688 470.223 840.852 470.203 841.017C470.11 841.786 470.006 842.548 469.894 843.306C469.884 843.368 469.876 843.43 469.867 843.492C469.826 843.763 469.784 844.033 469.741 844.302C469.73 844.367 469.72 844.431 469.709 844.495C469.241 847.364 468.633 850.15 467.896 852.852C467.866 852.963 467.835 853.075 467.804 853.186C444.439 937.383 294.544 939.719 286.894 836.538C286.894 811.529 306.704 789.971 329.435 783.6C329.466 783.591 329.496 783.583 329.526 783.574C330.837 783.209 332.157 782.894 333.484 782.633C333.504 782.629 333.523 782.625 333.542 782.622C333.784 782.574 334.027 782.529 334.269 782.485C334.308 782.478 334.347 782.471 334.385 782.464C334.618 782.422 334.851 782.383 335.084 782.344C335.136 782.336 335.187 782.328 335.239 782.319C335.477 782.281 335.715 782.244 335.953 782.209C335.983 782.204 336.012 782.2 336.042 782.196C336.285 782.161 336.528 782.127 336.771 782.096C336.822 782.089 336.873 782.083 336.923 782.076C337.655 781.984 338.388 781.908 339.122 781.849C339.175 781.844 339.229 781.839 339.283 781.835C339.497 781.818 339.711 781.804 339.925 781.791C339.997 781.786 340.069 781.78 340.141 781.776C340.38 781.762 340.618 781.75 340.857 781.739C340.887 781.738 340.917 781.737 340.947 781.735C341.196 781.725 341.446 781.716 341.696 781.709C341.729 781.709 341.762 781.708 341.795 781.707C342.03 781.701 342.265 781.697 342.5 781.695C342.57 781.694 342.641 781.694 342.711 781.694C343.674 781.689 344.637 781.714 345.597 781.77C345.704 781.776 345.81 781.782 345.916 781.789C346.085 781.8 346.253 781.813 346.421 781.826C346.546 781.835 346.67 781.845 346.794 781.856C346.984 781.872 347.175 781.89 347.365 781.908C347.436 781.915 347.507 781.922 347.578 781.93C347.808 781.953 348.037 781.979 348.266 782.006C348.303 782.011 348.34 782.015 348.377 782.019C348.612 782.048 348.846 782.078 349.08 782.11C349.149 782.12 349.218 782.13 349.287 782.14C349.946 782.234 350.603 782.344 351.259 782.469C351.372 782.49 351.484 782.511 351.597 782.533C351.776 782.569 351.954 782.607 352.132 782.645C352.24 782.668 352.349 782.691 352.457 782.715C352.631 782.753 352.804 782.793 352.978 782.833C353.094 782.861 353.211 782.888 353.327 782.916C353.488 782.955 353.649 782.995 353.81 783.036C353.948 783.071 354.086 783.108 354.225 783.145C354.374 783.184 354.523 783.224 354.671 783.266C354.785 783.297 354.899 783.331 355.013 783.363C355.605 783.533 356.194 783.715 356.781 783.912C356.926 783.961 357.072 784.009 357.217 784.06C357.34 784.102 357.462 784.148 357.585 784.191C357.734 784.245 357.884 784.298 358.033 784.354C358.183 784.409 358.332 784.467 358.481 784.524C358.616 784.576 358.751 784.627 358.885 784.681C359.043 784.743 359.2 784.807 359.357 784.871C359.469 784.917 359.581 784.964 359.693 785.011C359.866 785.084 360.038 785.157 360.209 785.232C360.308 785.275 360.407 785.32 360.506 785.364C360.678 785.441 360.85 785.517 361.022 785.596C361.154 785.658 361.285 785.721 361.417 785.783C361.554 785.849 361.692 785.912 361.829 785.979C361.924 786.025 362.018 786.074 362.113 786.121C362.452 786.289 362.789 786.463 363.125 786.642C363.228 786.697 363.331 786.751 363.434 786.806C363.564 786.877 363.693 786.95 363.823 787.022C363.976 787.107 364.13 787.193 364.283 787.281C364.395 787.345 364.507 787.41 364.619 787.475C364.781 787.57 364.943 787.666 365.105 787.763C365.219 787.832 365.334 787.901 365.448 787.972C365.614 788.074 365.779 788.178 365.944 788.283C366.042 788.345 366.141 788.406 366.238 788.469C366.43 788.593 366.621 788.719 366.812 788.847C366.891 788.899 366.97 788.951 367.049 789.004C367.567 789.355 368.081 789.721 368.591 790.099C368.739 790.208 368.886 790.32 369.033 790.431C369.149 790.52 369.266 790.609 369.383 790.7C369.516 790.803 369.647 790.908 369.78 791.013C369.903 791.111 370.026 791.209 370.149 791.308C370.276 791.412 370.403 791.516 370.53 791.621C370.678 791.744 370.827 791.869 370.975 791.995C371.073 792.079 371.172 792.163 371.27 792.248C371.42 792.378 371.569 792.509 371.717 792.641C371.832 792.743 371.948 792.844 372.062 792.947C372.202 793.074 372.341 793.204 372.48 793.333C372.585 793.431 372.691 793.527 372.795 793.626C372.903 793.728 373.01 793.832 373.118 793.935C373.328 794.137 373.537 794.341 373.745 794.549C373.921 794.724 374.097 794.901 374.272 795.08C374.347 795.157 374.421 795.236 374.496 795.313C374.658 795.482 374.82 795.652 374.98 795.824C375.079 795.929 375.177 796.036 375.275 796.143C375.414 796.293 375.552 796.445 375.689 796.598C375.794 796.714 375.898 796.832 376.002 796.951C376.141 797.108 376.279 797.267 376.417 797.428C376.513 797.539 376.61 797.651 376.705 797.764C376.874 797.963 377.041 798.165 377.208 798.368C377.263 798.436 377.32 798.502 377.375 798.57C377.571 798.811 377.764 799.056 377.958 799.303C377.998 799.353 378.039 799.404 378.079 799.455C378.329 799.775 378.575 800.097 378.817 800.418C378.901 800.53 378.983 800.641 379.066 800.753C379.235 800.979 379.401 801.206 379.566 801.433C379.636 801.529 379.706 801.626 379.776 801.723C380.249 802.38 380.706 803.038 381.146 803.696C381.2 803.778 381.254 803.86 381.308 803.941C381.474 804.193 381.638 804.444 381.8 804.696C381.859 804.788 381.919 804.88 381.978 804.972C382.387 805.615 382.781 806.257 383.16 806.9C383.229 807.016 383.296 807.134 383.363 807.251C383.495 807.478 383.626 807.704 383.754 807.931C383.815 808.039 383.876 808.146 383.935 808.254C384.295 808.9 384.641 809.545 384.971 810.19C385.022 810.29 385.071 810.389 385.121 810.488C385.24 810.724 385.357 810.96 385.472 811.196C385.526 811.305 385.579 811.414 385.632 811.523C385.759 811.788 385.884 812.053 386.007 812.318C386.033 812.375 386.06 812.433 386.087 812.49C386.235 812.814 386.381 813.138 386.522 813.461C386.559 813.545 386.595 813.63 386.631 813.714C386.739 813.964 386.845 814.215 386.949 814.465C386.99 814.564 387.031 814.662 387.071 814.76C387.162 814.983 387.25 815.206 387.338 815.428C387.383 815.542 387.429 815.656 387.473 815.77C387.589 816.07 387.702 816.37 387.811 816.669C387.851 816.778 387.89 816.887 387.929 816.996C388.005 817.206 388.079 817.416 388.151 817.625C388.193 817.747 388.235 817.868 388.276 817.989C388.365 818.254 388.453 818.518 388.537 818.783C388.556 818.84 388.574 818.897 388.593 818.954C388.695 819.278 388.794 819.601 388.89 819.924C388.911 819.993 388.931 820.062 388.951 820.131C389.026 820.389 389.098 820.646 389.169 820.903C389.194 820.991 389.218 821.078 389.242 821.166C389.504 822.136 389.736 823.102 389.937 824.062C389.958 824.165 389.979 824.268 389.999 824.37C390.053 824.636 390.106 824.901 390.155 825.166C390.164 825.213 390.173 825.259 390.182 825.306C390.24 825.623 390.294 825.939 390.346 826.254C390.36 826.34 390.373 826.426 390.386 826.512C390.425 826.757 390.462 827.001 390.497 827.246C390.506 827.308 390.516 827.371 390.525 827.434C390.661 828.413 390.765 829.386 390.841 830.351C390.847 830.433 390.853 830.514 390.859 830.595C390.874 830.802 390.888 831.008 390.9 831.214C390.907 831.326 390.915 831.437 390.921 831.549C390.954 832.173 390.975 832.794 390.983 833.412C390.984 833.472 390.985 833.533 390.985 833.593C391.066 841.597 389.106 849.01 385.727 855.277C385.708 855.314 385.687 855.35 385.668 855.387C385.26 856.137 384.834 856.871 384.387 857.587C384.38 857.598 384.374 857.609 384.367 857.62C378.505 866.992 369.337 873.361 359.274 874.57C382.975 882.505 404.214 876.544 418.129 862.075C425.242 854.679 430.439 845.06 433.075 833.937C433.363 832.72 433.622 831.485 433.848 830.233C434.145 828.585 434.387 826.907 434.574 825.202C434.637 824.62 434.695 824.034 434.745 823.445C434.753 823.353 434.762 823.262 434.769 823.17C434.902 821.539 434.985 819.885 435.014 818.209C435.04 816.755 435.025 815.285 434.97 813.799C434.932 812.775 434.875 811.744 434.799 810.706C434.442 805.902 427.986 778.875 418.248 740.062C417.278 740.344 416.303 740.612 415.323 740.87C415.226 740.896 415.128 740.92 415.031 740.946C414.635 741.049 414.238 741.151 413.84 741.25C413.744 741.274 413.648 741.298 413.552 741.322C413.154 741.42 412.756 741.516 412.357 741.61C412.253 741.635 412.148 741.659 412.044 741.684C411.607 741.786 411.169 741.886 410.73 741.983C410.687 741.993 410.644 742.002 410.601 742.012C409.087 742.345 407.564 742.651 406.032 742.929C405.965 742.941 405.897 742.953 405.83 742.965C405.415 743.04 404.999 743.113 404.583 743.184C404.458 743.205 404.333 743.225 404.209 743.246C403.797 743.315 403.385 743.382 402.972 743.447C402.899 743.459 402.825 743.47 402.752 743.481C402.322 743.548 401.892 743.612 401.461 743.675C401.366 743.688 401.272 743.703 401.177 743.716C399.668 743.931 398.152 744.12 396.628 744.284C396.501 744.297 396.373 744.311 396.245 744.324C395.83 744.368 395.414 744.409 394.997 744.448C394.914 744.456 394.831 744.465 394.748 744.472C394.346 744.51 393.944 744.545 393.541 744.579C393.399 744.591 393.258 744.604 393.116 744.615C392.671 744.652 392.226 744.685 391.779 744.718C391.736 744.721 391.692 744.725 391.649 744.728C390.067 744.84 388.478 744.925 386.884 744.985C386.816 744.987 386.749 744.99 386.681 744.992C386.239 745.008 385.796 745.021 385.353 745.033C385.216 745.036 385.079 745.039 384.942 745.043C384.605 745.051 384.266 745.058 383.928 745.064C383.715 745.067 383.503 745.07 383.29 745.073C382.895 745.078 382.5 745.081 382.105 745.083C382.03 745.084 381.956 745.084 381.881 745.084C381.4 745.086 380.918 745.086 380.435 745.082C380.379 745.082 380.322 745.082 380.266 745.081C379.754 745.077 379.242 745.07 378.729 745.061C378.551 745.058 378.372 745.054 378.193 745.05C377.851 745.043 377.51 745.035 377.168 745.025C376.964 745.02 376.761 745.012 376.558 745.006C376.239 744.996 375.92 744.985 375.601 744.973C375.411 744.965 375.22 744.958 375.029 744.95C374.676 744.935 374.323 744.919 373.97 744.902C373.81 744.894 373.649 744.886 373.489 744.878C373.172 744.861 372.855 744.844 372.538 744.825C372.276 744.81 372.014 744.795 371.752 744.778C371.553 744.766 371.354 744.752 371.154 744.739C370.859 744.719 370.563 744.7 370.267 744.679C369.288 744.608 368.308 744.528 367.327 744.439C367.023 744.412 366.718 744.382 366.413 744.353C366.173 744.33 365.933 744.307 365.693 744.283C365.465 744.26 365.237 744.236 365.008 744.212C364.708 744.18 364.408 744.148 364.107 744.115C363.869 744.089 363.63 744.061 363.391 744.034C363.134 744.004 362.877 743.974 362.619 743.944C362.357 743.912 362.094 743.88 361.831 743.848C361.581 743.817 361.332 743.784 361.082 743.752C360.792 743.715 360.501 743.678 360.211 743.639C360.118 743.626 360.024 743.613 359.931 743.6C359.31 743.516 358.689 743.428 358.067 743.336C357.783 743.295 357.499 743.254 357.215 743.21C357.026 743.181 356.836 743.151 356.647 743.122C356.316 743.07 355.985 743.019 355.654 742.965C355.399 742.924 355.144 742.881 354.889 742.839C354.661 742.801 354.433 742.763 354.205 742.724C353.893 742.671 353.581 742.616 353.269 742.562C353.049 742.523 352.829 742.484 352.609 742.445C352.342 742.397 352.075 742.348 351.809 742.299C351.557 742.253 351.306 742.206 351.054 742.158C350.762 742.103 350.469 742.047 350.176 741.99C350 741.956 349.824 741.921 349.648 741.886C348.453 741.651 347.259 741.403 346.065 741.142C345.958 741.119 345.851 741.095 345.744 741.072C345.369 740.989 344.995 740.905 344.62 740.82C344.489 740.791 344.359 740.761 344.228 740.731C343.907 740.657 343.585 740.583 343.264 740.507C343.02 740.45 342.776 740.392 342.532 740.334C342.263 740.27 341.994 740.205 341.725 740.14C341.499 740.084 341.273 740.028 341.047 739.972C340.741 739.896 340.434 739.82 340.128 739.742C340.038 739.72 339.948 739.696 339.858 739.673C338.528 739.334 337.199 738.981 335.871 738.611C335.828 738.599 335.785 738.587 335.742 738.575C335.352 738.466 334.963 738.356 334.573 738.244C334.457 738.211 334.34 738.178 334.224 738.145C333.829 738.031 333.434 737.915 333.038 737.799C332.939 737.769 332.841 737.74 332.742 737.711C332.384 737.605 332.026 737.498 331.668 737.39C331.45 737.323 331.232 737.257 331.014 737.19C330.731 737.103 330.447 737.015 330.164 736.927C329.992 736.873 329.821 736.819 329.65 736.765C288.998 723.958 250.305 697.06 225.715 660.934C151.948 552.557 253.516 444.419 321.723 368.147C310.602 325.678 299.633 282.931 299.633 238.689C299.633 158.297 351.018 110.292 385.947 108.296ZM343.491 451.147C339.837 454.804 336.175 458.486 332.535 462.2C331.499 463.257 330.464 464.318 329.431 465.382C329.161 465.66 328.889 465.938 328.619 466.217C288.455 507.691 252.265 553.548 259.808 615.599C264.835 656.951 292.827 691.131 328.619 707.141L329.805 707.663C345.227 714.357 362.054 717.685 379.089 716.783C380.071 716.731 381.053 716.664 382.036 716.584C383.675 716.45 385.315 716.277 386.955 716.063C387.958 715.933 388.961 715.787 389.964 715.626C391.095 715.444 392.227 715.243 393.358 715.022C394.379 714.823 395.4 714.608 396.42 714.376C398.041 714.008 399.66 713.598 401.277 713.147C402.292 712.864 403.306 712.565 404.319 712.249C405.942 711.742 407.561 711.193 409.176 710.6C409.672 710.418 410.168 710.233 410.663 710.043C410.651 709.994 410.638 709.946 410.625 709.897C403.652 682.465 395.666 651.42 387.352 619.308C384.464 608.153 381.536 596.869 378.597 585.562C376.681 578.187 374.76 570.802 372.842 563.437C346.156 576.696 331.665 613.573 345.22 638.902C345.507 639.439 345.808 639.972 346.121 640.498C346.726 641.518 347.379 642.516 348.081 643.492C348.308 643.807 348.542 644.118 348.779 644.429C349.031 644.758 349.287 645.085 349.551 645.409C351.48 647.778 353.722 649.992 356.296 652.01C361.102 655.779 366.885 660.313 369.873 663.87C370.019 664.044 370.158 664.216 370.29 664.385C370.538 664.702 370.759 665.01 370.954 665.308C371.488 666.122 371.814 666.859 371.87 667.492C372.674 676.605 367.817 679.355 358.907 677.216C357.999 676.998 357.102 676.767 356.215 676.528C356.051 676.484 355.888 676.44 355.725 676.395C355.519 676.338 355.313 676.281 355.108 676.223C355.002 676.193 354.897 676.163 354.791 676.133C354.531 676.059 354.271 675.983 354.013 675.907C353.932 675.883 353.852 675.86 353.772 675.836C353.544 675.768 353.317 675.7 353.09 675.63C352.956 675.589 352.822 675.548 352.688 675.506C352.504 675.449 352.321 675.392 352.139 675.334C351.975 675.282 351.812 675.23 351.649 675.177C351.492 675.126 351.335 675.075 351.179 675.024C350.978 674.958 350.779 674.891 350.58 674.824C350.451 674.781 350.322 674.737 350.193 674.693C349.967 674.616 349.742 674.538 349.518 674.459C349.416 674.424 349.314 674.388 349.213 674.352C348.982 674.271 348.753 674.188 348.524 674.105C348.43 674.071 348.337 674.037 348.243 674.003C347.93 673.888 347.618 673.772 347.307 673.654C347.299 673.651 347.291 673.648 347.283 673.645C347.043 673.554 346.805 673.46 346.567 673.368C346.467 673.329 346.367 673.291 346.267 673.251C345.632 673.001 345.002 672.745 344.38 672.482C344.336 672.464 344.292 672.445 344.248 672.426C343.664 672.179 343.086 671.927 342.514 671.67C342.439 671.636 342.364 671.601 342.289 671.567C342.038 671.454 341.789 671.34 341.54 671.225C341.502 671.207 341.464 671.189 341.426 671.171C341.181 671.057 340.937 670.942 340.694 670.826C340.585 670.773 340.476 670.72 340.366 670.667C340.175 670.575 339.985 670.482 339.795 670.388C339.706 670.344 339.616 670.3 339.527 670.255C339.283 670.134 339.04 670.011 338.797 669.888C338.764 669.871 338.73 669.854 338.696 669.836C338.436 669.703 338.178 669.569 337.92 669.434C337.877 669.411 337.835 669.388 337.792 669.365C334.546 667.652 331.502 665.765 328.656 663.721C328.644 663.712 328.631 663.703 328.619 663.694C283.942 631.561 288.25 560.875 328.619 522.44L329.384 521.718C329.5 521.611 329.617 521.505 329.733 521.398C329.858 521.282 329.982 521.167 330.108 521.052C330.226 520.944 330.345 520.837 330.464 520.73C330.567 520.637 330.669 520.544 330.772 520.451C330.912 520.326 331.052 520.202 331.193 520.077C331.316 519.969 331.438 519.86 331.562 519.752C331.67 519.657 331.779 519.561 331.889 519.467C332.021 519.351 332.154 519.236 332.287 519.122C332.413 519.014 332.54 518.907 332.666 518.799C333.405 518.172 334.154 517.554 334.914 516.948C335.019 516.864 335.126 516.781 335.231 516.698C335.39 516.573 335.548 516.447 335.707 516.322C335.812 516.241 335.917 516.16 336.022 516.079C336.176 515.959 336.332 515.84 336.488 515.721C336.596 515.638 336.704 515.555 336.813 515.473C336.98 515.346 337.147 515.22 337.315 515.095C337.418 515.018 337.522 514.94 337.625 514.864C337.824 514.717 338.024 514.572 338.223 514.426C338.286 514.381 338.348 514.334 338.41 514.289C338.585 514.162 338.761 514.037 338.937 513.912C339.419 513.568 339.906 513.227 340.396 512.891C340.568 512.773 340.74 512.656 340.913 512.539C341 512.48 341.088 512.421 341.175 512.362C341.368 512.233 341.561 512.105 341.755 511.977C341.866 511.904 341.976 511.831 342.087 511.758C342.275 511.635 342.463 511.514 342.652 511.392C342.717 511.351 342.782 511.309 342.846 511.267C343.107 511.1 343.368 510.935 343.631 510.77C343.661 510.752 343.691 510.733 343.721 510.714C344.599 510.166 345.489 509.63 346.39 509.108C346.477 509.058 346.565 509.008 346.652 508.958C346.86 508.839 347.068 508.72 347.277 508.602C347.391 508.537 347.506 508.474 347.621 508.41C347.803 508.308 347.985 508.206 348.169 508.105C348.273 508.048 348.377 507.991 348.481 507.934C348.719 507.804 348.958 507.676 349.198 507.548C349.253 507.519 349.307 507.489 349.362 507.46C350.596 506.805 351.849 506.176 353.123 505.572C353.204 505.534 353.287 505.496 353.369 505.457C353.638 505.331 353.907 505.205 354.178 505.08C354.208 505.067 354.238 505.053 354.268 505.039C354.889 504.755 355.514 504.478 356.145 504.206C356.188 504.187 356.232 504.168 356.275 504.149C356.602 504.009 356.931 503.87 357.26 503.733C354.854 494.532 352.492 485.505 350.191 476.718C347.89 467.932 345.651 459.386 343.491 451.147ZM409.816 556.063C407.21 555.861 404.626 555.822 402.083 555.925L438.97 695.498C453.778 685.492 466.694 671.827 471.842 653.838C471.983 653.345 472.118 652.849 472.247 652.35C472.829 650.103 473.29 647.789 473.62 645.409C473.657 645.144 473.692 644.879 473.725 644.613C473.859 643.548 473.966 642.47 474.046 641.379C474.066 641.106 474.085 640.833 474.101 640.558C474.549 633.147 473.748 625.122 471.4 616.452C471.226 615.809 471.044 615.163 470.853 614.514C470.28 612.566 469.629 610.586 468.898 608.574C468.654 607.903 468.401 607.228 468.139 606.549C468.009 606.211 467.875 605.871 467.74 605.531C466.057 601.298 464.25 597.392 462.337 593.794C462.121 593.388 461.904 592.986 461.686 592.587C459.508 588.619 457.197 585.037 454.779 581.81C454.239 581.09 453.694 580.387 453.144 579.702C452.394 578.768 451.634 577.866 450.865 576.996C450.404 576.474 449.939 575.964 449.472 575.464C449.285 575.264 449.098 575.066 448.91 574.87C448.425 574.363 447.937 573.868 447.446 573.385C446.539 572.493 445.623 571.64 444.697 570.826C444.281 570.461 443.863 570.104 443.444 569.754C443.172 569.527 442.9 569.303 442.627 569.082C442.143 568.692 441.656 568.312 441.168 567.942C440.738 567.615 440.306 567.294 439.872 566.982C438.533 566.02 437.178 565.131 435.813 564.308C435.231 563.957 434.646 563.62 434.061 563.294C433.585 563.029 433.108 562.772 432.63 562.522C432.381 562.393 432.132 562.265 431.883 562.139C429.524 560.954 427.14 559.958 424.745 559.133C423.4 558.67 422.052 558.261 420.703 557.903C420.143 557.755 419.584 557.615 419.025 557.484C418.576 557.379 418.128 557.278 417.68 557.184C415.464 556.719 413.251 556.386 411.051 556.172C410.639 556.132 410.227 556.095 409.816 556.063ZM398.261 181.592C394.628 179.459 390.215 178.465 384.969 178.854C381.863 179.085 377.79 180.474 373.349 183.208C358.344 192.445 339.154 217.047 338.989 264.309C338.949 275.784 340.514 290.949 343.119 308.116C344.157 314.954 345.359 322.11 346.692 329.476C346.948 330.893 347.21 332.317 347.476 333.748C347.712 335.02 347.951 336.298 348.194 337.58C350.272 336.312 352.309 334.938 354.307 333.469C354.369 333.423 354.433 333.377 354.495 333.331C359.708 329.478 364.637 324.972 369.253 319.972C370.029 319.132 370.796 318.277 371.554 317.409C374.335 314.226 376.994 310.866 379.523 307.364C380.211 306.413 380.889 305.452 381.557 304.481C383.685 301.386 385.715 298.192 387.643 294.925C388.533 293.416 389.402 291.891 390.247 290.353C399.847 272.89 406.551 253.696 409.654 236.224C409.836 235.201 410.005 234.184 410.162 233.174C413.896 209.127 410.562 188.818 398.261 181.592Z" fill="black"/>
<path d="M649.731 241.442H616.235V315.931H649.731V339.777H616.235V413.174H649.731V435.925L616.235 435.926V509.323L649.731 509.322V630.409H616.235V704.899H649.731V727.651H616.235V802.141H649.731V862.104H505.469C511.156 840.529 511 816.387 504.145 790.725L491.275 742.026C539.812 700.479 575.882 633.934 549.96 559.668C525.969 490.935 465.036 462.665 430.431 456.09C425.384 455.131 420.264 454.535 415.137 454.247C413.538 448.263 411.957 442.318 410.404 436.373C471.464 363.597 503.212 273.93 496.847 206.428C496.045 197.927 494.776 189.56 493.062 181.41H649.731V241.442Z" fill="black"/>
<path d="M726.328 181.41C772.682 181.41 795.86 181.41 810.261 195.811C824.661 210.211 824.662 233.39 824.662 279.745V763.769C824.662 810.124 824.661 833.302 810.261 847.703C795.86 862.103 772.682 862.104 726.328 862.104H678.42L678.419 802.141H781.413V727.651H678.42V704.899H781.413V630.409H678.42L678.419 509.322H781.413V435.925H678.42V413.174H781.413V339.777H678.42L678.419 315.931H781.413V241.442H678.42L678.419 181.445H700.675V181.41H726.328Z" fill="black"/>
<path d="M766.205 786.933H631.444V742.859H766.205V786.933Z" fill="black"/>
<path d="M766.205 689.691H631.444V645.617H766.205V689.691Z" fill="black"/>
<path d="M766.205 494.114L631.444 494.115V451.133H766.205V494.114Z" fill="black"/>
<path d="M766.205 397.966H631.444V354.984H766.205V397.966Z" fill="black"/>
<path d="M766.205 300.724H631.444V256.649H766.205V300.724Z" fill="black"/>
</svg>
