<svg width="1024" height="1024" viewBox="0 0 1024 1024" fill="none" xmlns="http://www.w3.org/2000/svg">
<g filter="url(#filter0_d_306_284)">
<rect x="271.626" y="904.855" width="765.525" height="569.798" rx="74.1166" transform="rotate(-90 271.626 904.855)" stroke="#F6F5F1" stroke-width="44"/>
<mask id="mask0_306_284" style="mask-type:alpha" maskUnits="userSpaceOnUse" x="293" y="161" width="527" height="722">
<rect x="293.626" y="882.855" width="721.525" height="525.798" rx="52.1166" transform="rotate(-90 293.626 882.855)" fill="black"/>
</mask>
<g mask="url(#mask0_306_284)">
<rect x="180.128" y="-1.96777" width="815.335" height="1027.28" fill="#011117"/>
<rect x="634" y="161.231" width="54" height="722" fill="#F6F5F1"/>
<rect x="653.81" y="882.891" width="103.075" height="165.615" transform="rotate(-90 653.81 882.891)" fill="#FF3377"/>
<rect x="653.81" y="779.815" width="101.917" height="165.615" transform="rotate(-90 653.81 779.815)" fill="#B0623B"/>
<rect x="653.81" y="677.898" width="104.233" height="165.615" transform="rotate(-90 653.81 677.898)" fill="#F9CE00"/>
<rect x="653.81" y="573.666" width="103.075" height="165.615" transform="rotate(-90 653.81 573.666)" fill="#0CAD8E"/>
<rect x="653.81" y="470.591" width="103.075" height="165.615" transform="rotate(-90 653.81 470.591)" fill="#1A3AC3"/>
<rect x="653.81" y="367.516" width="103.075" height="165.615" transform="rotate(-90 653.81 367.516)" fill="#8222D7"/>
<rect x="653.81" y="264.441" width="103.075" height="165.615" transform="rotate(-90 653.81 264.441)" fill="#4C4C4C"/>
<rect x="605.496" y="812.295" width="64.9584" height="161.085" transform="rotate(-90 605.496 812.295)" fill="#011117" stroke="#F6F5F1" stroke-width="14"/>
<rect x="605.496" y="709.22" width="64.9584" height="161.085" transform="rotate(-90 605.496 709.22)" fill="#011117" stroke="#F6F5F1" stroke-width="14"/>
<rect x="605.496" y="501.912" width="63.8003" height="161.085" transform="rotate(-90 605.496 501.912)" fill="#011117" stroke="#F6F5F1" stroke-width="14"/>
<rect x="605.496" y="399.996" width="63.8003" height="161.085" transform="rotate(-90 605.496 399.996)" fill="#011117" stroke="#F6F5F1" stroke-width="14"/>
<rect x="605.496" y="296.92" width="64.9584" height="161.085" transform="rotate(-90 605.496 296.92)" fill="#011117" stroke="#F6F5F1" stroke-width="14"/>
</g>
<path d="M354.022 77.3418C375.635 76.1069 395.215 89.3513 409.726 109.733C424.32 130.233 434.559 158.871 437.597 191.088C443.623 254.991 410.471 348.325 342.379 422.525C347.037 441.183 351.528 458.191 355.292 471.857L356.95 477.833L356.962 477.878L356.975 477.924L359.162 486.2C371.534 484.383 383.94 484.259 395.104 486.38C424.047 491.88 475.582 516.093 495.671 573.647C515.698 631.023 495.338 694.564 426.832 742.251L446.326 816.011L446.398 816.283L446.446 816.562C459.563 892.275 386.146 963.417 308.575 938.709C277.099 928.684 260.617 910.21 252.093 892.886C243.68 875.786 243.206 860.139 242.917 856.237C242.476 850.301 244.04 839.041 249.085 827.853C254.198 816.517 263.253 804.46 278.407 798.253C293.021 792.267 308.299 792.215 321.184 795.306C333.882 798.352 345.116 804.673 351.18 812.453C375.312 843.416 367.576 878.111 347.237 894C349.564 894.253 351.932 894.417 354.282 894.454C364.426 894.616 372.287 892.448 376.349 887.736C390.803 870.967 401.145 848.443 399.693 828.855C399.637 828.106 399.247 825.818 398.367 821.658C397.526 817.684 396.326 812.394 394.806 805.943C392.088 794.403 388.371 779.245 383.923 761.45C349.722 769.538 311.182 764.579 275.608 749.986C237.716 734.443 202.649 707.762 179.176 673.275C138.353 613.298 146.323 553.283 173.168 498.809C199.252 445.878 243.567 397.265 279.144 357.533C276.064 345.764 274.147 338.397 273.807 336.948C271.133 325.559 256.402 275.006 256.402 222.046C256.402 178.021 270.483 142.595 289.618 117.805C308.575 93.2445 333.013 78.5422 354.022 77.3418ZM305.97 459.838C280.661 485.029 259.68 505.685 245.398 528.714C229.934 553.648 222.356 581.424 227.14 620.78C232.507 664.932 257.105 692.034 284.783 707.211C312.838 722.594 343.555 725.445 359.971 721.395C363.875 720.431 368.228 719.165 372.84 717.578C362.103 675.411 349.27 625.784 336.456 576.537C327.311 583.712 319.114 595.468 314.746 608.356C309.279 624.487 310.512 639.976 320.298 649.577C329.913 659.009 335.517 663.261 338.704 665.597C340.068 666.597 341.799 667.795 342.944 668.935C343.663 669.65 344.432 670.587 345.008 671.825C345.516 672.916 345.748 673.971 345.849 674.906L345.884 675.3L345.942 675.925C346.023 676.791 346.154 678.298 346.139 679.708C346.119 681.669 345.857 684.48 344.454 687.181C342.908 690.154 340.224 692.51 336.399 693.563C332.868 694.536 328.773 694.292 324.213 693.197C280.204 682.629 257.417 647.443 254.275 609.655C251.152 572.098 267.295 531.198 301.631 507.827C306.168 504.739 311.111 501.909 316.32 499.371C312.754 485.738 309.287 472.494 305.97 459.838ZM414.437 695.349C424.242 687.43 432.36 677.851 437.048 666.467C442.811 652.476 443.697 635.044 435.051 613.293C427.096 593.278 416.621 581.054 405.708 573.901C397.435 568.479 388.637 565.792 379.989 565.006L414.437 695.349ZM353.837 165.104C349.207 165.447 338.629 170.294 328.943 183.761C319.485 196.91 311.226 217.922 311.117 249.225C311.063 264.562 313.837 286.695 318.239 311.838C330.959 295.89 340.895 281.773 345.98 271.234C355.068 252.401 361.126 234.558 364.664 220.363C366.433 213.264 367.555 207.146 368.119 202.326C368.707 197.301 368.613 194.274 368.353 193.031C368.326 192.903 368.298 192.771 368.27 192.636C367.247 187.746 365.607 180.029 362.675 173.702C359.493 166.833 356.432 164.911 353.837 165.104Z" fill="#011117" stroke="#F6F5F1" stroke-width="13"/>
</g>
<defs>
<filter id="filter0_d_306_284" x="-4" y="0" width="1032" height="1032" filterUnits="userSpaceOnUse" color-interpolation-filters="sRGB">
<feFlood flood-opacity="0" result="BackgroundImageFix"/>
<feColorMatrix in="SourceAlpha" type="matrix" values="0 0 0 0 0 0 0 0 0 0 0 0 0 0 0 0 0 0 127 0" result="hardAlpha"/>
<feOffset dy="4"/>
<feGaussianBlur stdDeviation="2"/>
<feComposite in2="hardAlpha" operator="out"/>
<feColorMatrix type="matrix" values="0 0 0 0 0 0 0 0 0 0 0 0 0 0 0 0 0 0 0.25 0"/>
<feBlend mode="normal" in2="BackgroundImageFix" result="effect1_dropShadow_306_284"/>
<feBlend mode="normal" in="SourceGraphic" in2="effect1_dropShadow_306_284" result="shape"/>
</filter>
</defs>
</svg>
