<svg width="1024" height="1024" viewBox="0 0 1024 1024" fill="none" xmlns="http://www.w3.org/2000/svg">
<g filter="url(#filter0_d_306_284)">
<rect x="271.626" y="904.855" width="765.525" height="569.798" rx="74.1166" transform="rotate(-90 271.626 904.855)" stroke="#F6F5F1" stroke-width="44"/>
<mask id="mask0_306_284" style="mask-type:alpha" maskUnits="userSpaceOnUse" x="293" y="161" width="527" height="722">
<rect x="293.626" y="882.855" width="721.525" height="525.798" rx="52.1166" transform="rotate(-90 293.626 882.855)" fill="black"/>
</mask>
<g mask="url(#mask0_306_284)">
<rect x="180.128" y="-1.96777" width="815.335" height="1027.28" fill="#011117"/>
<rect x="634" y="161.231" width="54" height="722" fill="#F6F5F1"/>
<rect x="653.81" y="882.891" width="103.075" height="165.615" transform="rotate(-90 653.81 882.891)" fill="#FF3377"/>
<rect x="653.81" y="779.815" width="101.917" height="165.615" transform="rotate(-90 653.81 779.815)" fill="#B0623B"/>
<rect x="653.81" y="677.898" width="104.233" height="165.615" transform="rotate(-90 653.81 677.898)" fill="#F9CE00"/>
<rect x="653.81" y="573.666" width="103.075" height="165.615" transform="rotate(-90 653.81 573.666)" fill="#0CAD8E"/>
<rect x="653.81" y="470.591" width="103.075" height="165.615" transform="rotate(-90 653.81 470.591)" fill="#1A3AC3"/>
<rect x="653.81" y="367.516" width="103.075" height="165.615" transform="rotate(-90 653.81 367.516)" fill="#8222D7"/>
<rect x="653.81" y="264.441" width="103.075" height="165.615" transform="rotate(-90 653.81 264.441)" fill="#4C4C4C"/>
<rect x="605.496" y="812.295" width="64.9584" height="161.085" transform="rotate(-90 605.496 812.295)" fill="#011117" stroke="#F6F5F1" stroke-width="14"/>
<rect x="605.496" y="709.22" width="64.9584" height="161.085" transform="rotate(-90 605.496 709.22)" fill="#011117" stroke="#F6F5F1" stroke-width="14"/>
<rect x="605.496" y="501.912" width="63.8003" height="161.085" transform="rotate(-90 605.496 501.912)" fill="#011117" stroke="#F6F5F1" stroke-width="14"/>
<rect x="605.496" y="399.996" width="63.8003" height="161.085" transform="rotate(-90 605.496 399.996)" fill="#011117" stroke="#F6F5F1" stroke-width="14"/>
<rect x="605.496" y="296.92" width="64.9584" height="161.085" transform="rotate(-90 605.496 296.92)" fill="#011117" stroke="#F6F5F1" stroke-width="14"/>
</g>
<path d="M353.223 63.3643C381.515 61.7477 405.127 79.1353 421.13 101.614C437.397 124.464 448.31 155.562 451.536 189.773C457.867 256.913 424.428 350.937 357.776 426.349C361.952 442.852 365.928 457.793 369.274 469.889L369.33 469.879L369.638 471.05C379.159 470.483 388.681 470.909 397.717 472.626C429.801 478.722 486.633 505.27 508.889 569.034C530.544 631.074 509.158 697.964 442.821 747.955L459.861 812.434L460.088 813.294L460.241 814.172C475.009 899.416 392.693 980.195 304.326 952.049C269.004 940.798 249.635 919.599 239.532 899.066C229.776 879.239 229.234 861.039 228.955 857.272C228.317 848.679 230.464 835.091 236.324 822.098C242.394 808.638 253.631 793.273 273.1 785.298C290.868 778.02 309.204 778.035 324.45 781.692C339.104 785.208 353.598 792.781 362.222 803.847C376.383 822.016 381.48 842.274 379.665 860.563C384.115 852.653 386.65 842.284 385.731 829.891C385.759 830.268 385.603 828.965 384.67 824.557C383.861 820.734 382.688 815.563 381.178 809.153C379.155 800.563 376.567 789.927 373.527 777.649C339.635 782.505 303.431 776.531 270.294 762.938C230.139 746.467 192.78 718.142 167.603 681.153C123.059 615.709 132.329 550.009 160.61 492.62C186.426 440.234 229.227 392.25 263.696 353.796C261.731 346.27 260.478 341.43 260.177 340.148C257.695 329.578 242.402 277.046 242.402 222.046C242.402 174.968 257.483 136.525 278.535 109.25C299.026 82.7024 326.838 64.872 353.223 63.3643ZM353.543 698.597C350.186 702.545 345.627 705.544 340.116 707.062C337.287 707.84 334.457 708.16 331.7 708.17C341.655 709.511 350.205 709.239 355.94 707.96C355.151 704.871 354.351 701.75 353.543 698.597ZM253.844 541.979C242.433 562.637 237.013 585.984 241.038 619.091C245.333 654.427 263.284 677.014 284.699 690.872C257.437 672.015 242.904 641.86 240.323 610.815C238.408 587.787 242.939 563.55 253.844 541.979ZM421.349 666.713C422.397 664.896 423.319 663.038 424.103 661.136C428.317 650.903 429.513 637.262 422.042 618.464C415.615 602.295 407.764 592.813 400.344 587.235L421.349 666.713ZM330.068 607.618C329.307 609.308 328.614 611.055 328.005 612.851C323.36 626.557 325.822 635.383 330.103 639.583C334.64 644.034 338.18 647.217 340.922 649.533C337.369 635.777 333.734 621.743 330.068 607.618ZM298.614 487.012C290.504 495.229 283.164 502.916 276.607 510.445C281.78 505.277 287.496 500.514 293.754 496.254C295.777 494.877 297.86 493.553 299.993 492.282C299.531 490.518 299.072 488.761 298.614 487.012ZM350.735 181.373C348.029 183.202 344.285 186.406 340.308 191.936C332.782 202.399 325.217 220.471 325.117 249.273C325.091 256.537 325.769 265.662 327.026 276.195C329.683 272.066 331.82 268.364 333.372 265.149C342.032 247.202 347.767 230.266 351.079 216.979C352.737 210.326 353.733 204.805 354.213 200.698C354.665 196.835 354.52 195.362 354.573 195.532L354.568 195.507L354.567 195.503C353.633 191.04 352.463 185.747 350.735 181.373Z" fill="#011117" stroke="#F6F5F1" stroke-width="41"/>
</g>
<defs>
<filter id="filter0_d_306_284" x="-4" y="0" width="1032" height="1032" filterUnits="userSpaceOnUse" color-interpolation-filters="sRGB">
<feFlood flood-opacity="0" result="BackgroundImageFix"/>
<feColorMatrix in="SourceAlpha" type="matrix" values="0 0 0 0 0 0 0 0 0 0 0 0 0 0 0 0 0 0 127 0" result="hardAlpha"/>
<feOffset dy="4"/>
<feGaussianBlur stdDeviation="2"/>
<feComposite in2="hardAlpha" operator="out"/>
<feColorMatrix type="matrix" values="0 0 0 0 0 0 0 0 0 0 0 0 0 0 0 0 0 0 0.25 0"/>
<feBlend mode="normal" in2="BackgroundImageFix" result="effect1_dropShadow_306_284"/>
<feBlend mode="normal" in="SourceGraphic" in2="effect1_dropShadow_306_284" result="shape"/>
</filter>
</defs>
</svg>
